# xmcd
#
# Track frame offsets: 
#        150
#        29190
#        39417
#        52722
#        77725
#        92802
#        105515
#        137897
#        156647
#        169622
#
# Disc length: 2520 seconds
#
# Revision: 10
# Processed by: cddbd v1.5.2PL0 Copyright (c) Steve Scherf et al.
# Submitted via: ExactAudioCopy v1.0b1
#
DISCID=7e09d60a
DTITLE=Various Artist - Born on the Blues
DYEAR=1999
DGENRE=Blues
TTITLE0=House Rent Boogie (John Lee Hooker)
TTITLE1=Don't Lose Your Cool (Albert Collins)
TTITLE2=Worried About My Baby (Howlin' Wolf)
TTITLE3=The Thrill Is Gone (B.B.King)
TTITLE4=Touch of the Blues (Bobby Bland)
TTITLE5=Everyday I Have the Blues (B.B.King)
TTITLE6=Stone Crazy (Buddy Guy)
TTITLE7=Stormy Monday (Bobby Bland)
TTITLE8=(I'm Your) Hoochie Coochie Man (Muddy Waters)
TTITLE9=Big Boss Man (Koko Taylor)
EXTD=YEAR: 1999
EXTT0=
EXTT1=
EXTT2=
EXTT3=
EXTT4=
EXTT5=
EXTT6=
EXTT7=
EXTT8=
EXTT9=
PLAYORDER=
